<svg xmlns="http://www.w3.org/2000/svg" xmlns:xlink="http://www.w3.org/1999/xlink" contentStyleType="text/css" data-diagram-type="CLASS" height="915px" preserveAspectRatio="none" style="width:533px;height:915px;background:#FFFFFF;" version="1.1" viewBox="0 0 533 915" width="533px" zoomAndPan="magnify"><defs/><g><!--class User--><g class="entity" data-entity="User" data-source-line="2" data-uid="ent0002" id="entity_User"><rect fill="#F1F1F1" height="206.4844" rx="2.5" ry="2.5" style="stroke:#181818;stroke-width:0.5;" width="162.9648" x="127.5" y="186"/><ellipse cx="189.9531" cy="202" fill="#ADD1B2" rx="11" ry="11" style="stroke:#181818;stroke-width:1;"/><path d="M192.7188,197.875 Q192.875,197.6563 193.0625,197.5469 Q193.25,197.4375 193.4688,197.4375 Q193.8438,197.4375 194.0781,197.7031 Q194.3125,197.9531 194.3125,198.5625 L194.3125,200.0156 Q194.3125,200.625 194.0781,200.8906 Q193.8438,201.1563 193.4688,201.1563 Q193.125,201.1563 192.9219,200.9531 Q192.7188,200.7656 192.6094,200.25 Q192.5625,199.8906 192.375,199.7031 Q192.0469,199.3281 191.4375,199.1094 Q190.8281,198.8906 190.2031,198.8906 Q189.4375,198.8906 188.7969,199.2188 Q188.1719,199.5469 187.6719,200.2969 Q187.1875,201.0469 187.1875,202.0781 L187.1875,203.1719 Q187.1875,204.4063 188.0781,205.2344 Q188.9688,206.0469 190.5625,206.0469 Q191.5,206.0469 192.1563,205.7969 Q192.5469,205.6406 192.9688,205.2031 Q193.2344,204.9375 193.375,204.8594 Q193.5313,204.7813 193.7344,204.7813 Q194.0625,204.7813 194.3125,205.0469 Q194.5781,205.2969 194.5781,205.6406 Q194.5781,205.9844 194.2344,206.3906 Q193.7344,206.9688 192.9375,207.2969 Q191.8594,207.75 190.5625,207.75 Q189.0469,207.75 187.8438,207.125 Q186.8594,206.625 186.1719,205.5625 Q185.4844,204.4844 185.4844,203.2031 L185.4844,202.0469 Q185.4844,200.7188 186.0938,199.5781 Q186.7188,198.4219 187.8125,197.8125 Q188.9063,197.1875 190.1406,197.1875 Q190.875,197.1875 191.5156,197.3594 Q192.1719,197.5156 192.7188,197.875 Z " fill="#000000"/><text fill="#000000" font-family="sans-serif" font-size="14" lengthAdjust="spacing" textLength="29.5586" x="210.4531" y="207.7285">User</text><line style="stroke:#181818;stroke-width:0.5;" x1="128.5" x2="289.4648" y1="218" y2="218"/><rect fill="none" height="6" style="stroke:#C82930;stroke-width:1;" width="6" x="135.5" y="229.3047"/><text fill="#000000" font-family="sans-serif" font-size="14" lengthAdjust="spacing" textLength="65.3652" x="147.5" y="236.5332">userId : int</text><rect fill="none" height="6" style="stroke:#C82930;stroke-width:1;" width="6" x="135.5" y="246.9141"/><text fill="#000000" font-family="sans-serif" font-size="14" lengthAdjust="spacing" textLength="110.4961" x="147.5" y="254.1426">username : String</text><rect fill="none" height="6" style="stroke:#C82930;stroke-width:1;" width="6" x="135.5" y="264.5234"/><text fill="#000000" font-family="sans-serif" font-size="14" lengthAdjust="spacing" textLength="108.1582" x="147.5" y="271.752">password : String</text><rect fill="none" height="6" style="stroke:#C82930;stroke-width:1;" width="6" x="135.5" y="282.1328"/><text fill="#000000" font-family="sans-serif" font-size="14" lengthAdjust="spacing" textLength="81.6963" x="147.5" y="289.3613">email : String</text><rect fill="none" height="6" style="stroke:#C82930;stroke-width:1;" width="6" x="135.5" y="299.7422"/><text fill="#000000" font-family="sans-serif" font-size="14" lengthAdjust="spacing" textLength="98.0479" x="147.5" y="306.9707">address : String</text><rect fill="none" height="6" style="stroke:#C82930;stroke-width:1;" width="6" x="135.5" y="317.3516"/><text fill="#000000" font-family="sans-serif" font-size="14" lengthAdjust="spacing" textLength="136.9648" x="147.5" y="324.5801">phoneNumber : String</text><line style="stroke:#181818;stroke-width:1;" x1="128.5" x2="289.4648" y1="331.6563" y2="331.6563"/><ellipse cx="138.5" cy="345.9609" fill="#84BE84" rx="3" ry="3" style="stroke:#038048;stroke-width:1;"/><text fill="#000000" font-family="sans-serif" font-size="14" lengthAdjust="spacing" textLength="56.0068" x="147.5" y="350.1895">register()</text><ellipse cx="138.5" cy="363.5703" fill="#84BE84" rx="3" ry="3" style="stroke:#038048;stroke-width:1;"/><text fill="#000000" font-family="sans-serif" font-size="14" lengthAdjust="spacing" textLength="38.9033" x="147.5" y="367.7988">login()</text><ellipse cx="138.5" cy="381.1797" fill="#84BE84" rx="3" ry="3" style="stroke:#038048;stroke-width:1;"/><text fill="#000000" font-family="sans-serif" font-size="14" lengthAdjust="spacing" textLength="91.8271" x="147.5" y="385.4082">updateProfile()</text></g><!--class Product--><g class="entity" data-entity="Product" data-source-line="15" data-uid="ent0003" id="entity_Product"><rect fill="#F1F1F1" height="188.875" rx="2.5" ry="2.5" style="stroke:#181818;stroke-width:0.5;" width="141.9443" x="368" y="194.5"/><ellipse cx="410.7633" cy="210.5" fill="#ADD1B2" rx="11" ry="11" style="stroke:#181818;stroke-width:1;"/><path d="M413.529,206.375 Q413.6852,206.1563 413.8727,206.0469 Q414.0602,205.9375 414.279,205.9375 Q414.654,205.9375 414.8883,206.2031 Q415.1227,206.4531 415.1227,207.0625 L415.1227,208.5156 Q415.1227,209.125 414.8883,209.3906 Q414.654,209.6563 414.279,209.6563 Q413.9352,209.6563 413.7321,209.4531 Q413.529,209.2656 413.4196,208.75 Q413.3727,208.3906 413.1852,208.2031 Q412.8571,207.8281 412.2477,207.6094 Q411.6383,207.3906 411.0133,207.3906 Q410.2477,207.3906 409.6071,207.7188 Q408.9821,208.0469 408.4821,208.7969 Q407.9977,209.5469 407.9977,210.5781 L407.9977,211.6719 Q407.9977,212.9063 408.8883,213.7344 Q409.779,214.5469 411.3727,214.5469 Q412.3102,214.5469 412.9665,214.2969 Q413.3571,214.1406 413.779,213.7031 Q414.0446,213.4375 414.1852,213.3594 Q414.3415,213.2813 414.5446,213.2813 Q414.8727,213.2813 415.1227,213.5469 Q415.3883,213.7969 415.3883,214.1406 Q415.3883,214.4844 415.0446,214.8906 Q414.5446,215.4688 413.7477,215.7969 Q412.6696,216.25 411.3727,216.25 Q409.8571,216.25 408.654,215.625 Q407.6696,215.125 406.9821,214.0625 Q406.2946,212.9844 406.2946,211.7031 L406.2946,210.5469 Q406.2946,209.2188 406.904,208.0781 Q407.529,206.9219 408.6227,206.3125 Q409.7165,205.6875 410.9508,205.6875 Q411.6852,205.6875 412.3258,205.8594 Q412.9821,206.0156 413.529,206.375 Z " fill="#000000"/><text fill="#000000" font-family="sans-serif" font-size="14" lengthAdjust="spacing" textLength="48.248" x="430.933" y="216.2285">Product</text><line style="stroke:#181818;stroke-width:0.5;" x1="369" x2="508.9443" y1="226.5" y2="226.5"/><rect fill="none" height="6" style="stroke:#C82930;stroke-width:1;" width="6" x="376" y="237.8047"/><text fill="#000000" font-family="sans-serif" font-size="14" lengthAdjust="spacing" textLength="84.8271" x="388" y="245.0332">productId : int</text><rect fill="none" height="6" style="stroke:#C82930;stroke-width:1;" width="6" x="376" y="255.4141"/><text fill="#000000" font-family="sans-serif" font-size="14" lengthAdjust="spacing" textLength="83.2617" x="388" y="262.6426">name : String</text><rect fill="none" height="6" style="stroke:#C82930;stroke-width:1;" width="6" x="376" y="273.0234"/><text fill="#000000" font-family="sans-serif" font-size="14" lengthAdjust="spacing" textLength="115.9443" x="388" y="280.252">description : String</text><rect fill="none" height="6" style="stroke:#C82930;stroke-width:1;" width="6" x="376" y="290.6328"/><text fill="#000000" font-family="sans-serif" font-size="14" lengthAdjust="spacing" textLength="84.0547" x="388" y="297.8613">price : double</text><rect fill="none" height="6" style="stroke:#C82930;stroke-width:1;" width="6" x="376" y="308.2422"/><text fill="#000000" font-family="sans-serif" font-size="14" lengthAdjust="spacing" textLength="104.2549" x="388" y="315.4707">imageUrl : String</text><rect fill="none" height="6" style="stroke:#C82930;stroke-width:1;" width="6" x="376" y="325.8516"/><text fill="#000000" font-family="sans-serif" font-size="14" lengthAdjust="spacing" textLength="101.9375" x="388" y="333.0801">category : String</text><line style="stroke:#181818;stroke-width:1;" x1="369" x2="508.9443" y1="340.1563" y2="340.1563"/><ellipse cx="379" cy="354.4609" fill="#84BE84" rx="3" ry="3" style="stroke:#038048;stroke-width:1;"/><text fill="#000000" font-family="sans-serif" font-size="14" lengthAdjust="spacing" textLength="71.5791" x="388" y="358.6895">getDetails()</text><ellipse cx="379" cy="372.0703" fill="#84BE84" rx="3" ry="3" style="stroke:#038048;stroke-width:1;"/><text fill="#000000" font-family="sans-serif" font-size="14" lengthAdjust="spacing" textLength="84.041" x="388" y="376.2988">updatePrice()</text></g><!--class Order--><g class="entity" data-entity="Order" data-source-line="27" data-uid="ent0004" id="entity_Order"><rect fill="#F1F1F1" height="188.875" rx="2.5" ry="2.5" style="stroke:#181818;stroke-width:0.5;" width="154.4199" x="362" y="470"/><ellipse cx="417.0669" cy="486" fill="#ADD1B2" rx="11" ry="11" style="stroke:#181818;stroke-width:1;"/><path d="M419.8325,481.875 Q419.9888,481.6563 420.1763,481.5469 Q420.3638,481.4375 420.5825,481.4375 Q420.9575,481.4375 421.1919,481.7031 Q421.4263,481.9531 421.4263,482.5625 L421.4263,484.0156 Q421.4263,484.625 421.1919,484.8906 Q420.9575,485.1563 420.5825,485.1563 Q420.2388,485.1563 420.0356,484.9531 Q419.8325,484.7656 419.7231,484.25 Q419.6763,483.8906 419.4888,483.7031 Q419.1606,483.3281 418.5513,483.1094 Q417.9419,482.8906 417.3169,482.8906 Q416.5513,482.8906 415.9106,483.2188 Q415.2856,483.5469 414.7856,484.2969 Q414.3013,485.0469 414.3013,486.0781 L414.3013,487.1719 Q414.3013,488.4063 415.1919,489.2344 Q416.0825,490.0469 417.6763,490.0469 Q418.6138,490.0469 419.27,489.7969 Q419.6606,489.6406 420.0825,489.2031 Q420.3481,488.9375 420.4888,488.8594 Q420.645,488.7813 420.8481,488.7813 Q421.1763,488.7813 421.4263,489.0469 Q421.6919,489.2969 421.6919,489.6406 Q421.6919,489.9844 421.3481,490.3906 Q420.8481,490.9688 420.0513,491.2969 Q418.9731,491.75 417.6763,491.75 Q416.1606,491.75 414.9575,491.125 Q413.9731,490.625 413.2856,489.5625 Q412.5981,488.4844 412.5981,487.2031 L412.5981,486.0469 Q412.5981,484.7188 413.2075,483.5781 Q413.8325,482.4219 414.9263,481.8125 Q416.02,481.1875 417.2544,481.1875 Q417.9888,481.1875 418.6294,481.3594 Q419.2856,481.5156 419.8325,481.875 Z " fill="#000000"/><text fill="#000000" font-family="sans-serif" font-size="14" lengthAdjust="spacing" textLength="35.7861" x="437.5669" y="491.7285">Order</text><line style="stroke:#181818;stroke-width:0.5;" x1="363" x2="515.4199" y1="502" y2="502"/><rect fill="none" height="6" style="stroke:#C82930;stroke-width:1;" width="6" x="370" y="513.3047"/><text fill="#000000" font-family="sans-serif" font-size="14" lengthAdjust="spacing" textLength="70.8135" x="382" y="520.5332">orderId : int</text><rect fill="none" height="6" style="stroke:#C82930;stroke-width:1;" width="6" x="370" y="530.9141"/><text fill="#000000" font-family="sans-serif" font-size="14" lengthAdjust="spacing" textLength="65.3652" x="382" y="538.1426">userId : int</text><rect fill="none" height="6" style="stroke:#C82930;stroke-width:1;" width="6" x="370" y="548.5234"/><text fill="#000000" font-family="sans-serif" font-size="14" lengthAdjust="spacing" textLength="103.4961" x="382" y="555.752">orderDate : Date</text><rect fill="none" height="6" style="stroke:#C82930;stroke-width:1;" width="6" x="370" y="566.1328"/><text fill="#000000" font-family="sans-serif" font-size="14" lengthAdjust="spacing" textLength="128.4199" x="382" y="573.3613">totalAmount : double</text><rect fill="none" height="6" style="stroke:#C82930;stroke-width:1;" width="6" x="370" y="583.7422"/><text fill="#000000" font-family="sans-serif" font-size="14" lengthAdjust="spacing" textLength="85.5928" x="382" y="590.9707">status : String</text><line style="stroke:#181818;stroke-width:1;" x1="363" x2="515.4199" y1="598.0469" y2="598.0469"/><ellipse cx="373" cy="612.3516" fill="#84BE84" rx="3" ry="3" style="stroke:#038048;stroke-width:1;"/><text fill="#000000" font-family="sans-serif" font-size="14" lengthAdjust="spacing" textLength="78.5791" x="382" y="616.5801">placeOrder()</text><ellipse cx="373" cy="629.9609" fill="#84BE84" rx="3" ry="3" style="stroke:#038048;stroke-width:1;"/><text fill="#000000" font-family="sans-serif" font-size="14" lengthAdjust="spacing" textLength="85.5791" x="382" y="634.1895">cancelOrder()</text><ellipse cx="373" cy="647.5703" fill="#84BE84" rx="3" ry="3" style="stroke:#038048;stroke-width:1;"/><text fill="#000000" font-family="sans-serif" font-size="14" lengthAdjust="spacing" textLength="91.834" x="382" y="651.7988">updateStatus()</text></g><!--class ShoppingCart--><g class="entity" data-entity="ShoppingCart" data-source-line="39" data-uid="ent0005" id="entity_ShoppingCart"><rect fill="#F1F1F1" height="153.6563" rx="2.5" ry="2.5" style="stroke:#181818;stroke-width:0.5;" width="320.1641" x="7" y="487.5"/><ellipse cx="120.0254" cy="503.5" fill="#ADD1B2" rx="11" ry="11" style="stroke:#181818;stroke-width:1;"/><path d="M122.791,499.375 Q122.9473,499.1563 123.1348,499.0469 Q123.3223,498.9375 123.541,498.9375 Q123.916,498.9375 124.1504,499.2031 Q124.3848,499.4531 124.3848,500.0625 L124.3848,501.5156 Q124.3848,502.125 124.1504,502.3906 Q123.916,502.6563 123.541,502.6563 Q123.1973,502.6563 122.9941,502.4531 Q122.791,502.2656 122.6816,501.75 Q122.6348,501.3906 122.4473,501.2031 Q122.1191,500.8281 121.5098,500.6094 Q120.9004,500.3906 120.2754,500.3906 Q119.5098,500.3906 118.8691,500.7188 Q118.2441,501.0469 117.7441,501.7969 Q117.2598,502.5469 117.2598,503.5781 L117.2598,504.6719 Q117.2598,505.9063 118.1504,506.7344 Q119.041,507.5469 120.6348,507.5469 Q121.5723,507.5469 122.2285,507.2969 Q122.6191,507.1406 123.041,506.7031 Q123.3066,506.4375 123.4473,506.3594 Q123.6035,506.2813 123.8066,506.2813 Q124.1348,506.2813 124.3848,506.5469 Q124.6504,506.7969 124.6504,507.1406 Q124.6504,507.4844 124.3066,507.8906 Q123.8066,508.4688 123.0098,508.7969 Q121.9316,509.25 120.6348,509.25 Q119.1191,509.25 117.916,508.625 Q116.9316,508.125 116.2441,507.0625 Q115.5566,505.9844 115.5566,504.7031 L115.5566,503.5469 Q115.5566,502.2188 116.166,501.0781 Q116.791,499.9219 117.8848,499.3125 Q118.9785,498.6875 120.2129,498.6875 Q120.9473,498.6875 121.5879,498.8594 Q122.2441,499.0156 122.791,499.375 Z " fill="#000000"/><text fill="#000000" font-family="sans-serif" font-size="14" lengthAdjust="spacing" textLength="85.6133" x="140.5254" y="509.2285">ShoppingCart</text><line style="stroke:#181818;stroke-width:0.5;" x1="8" x2="326.1641" y1="519.5" y2="519.5"/><rect fill="none" height="6" style="stroke:#C82930;stroke-width:1;" width="6" x="15" y="530.8047"/><text fill="#000000" font-family="sans-serif" font-size="14" lengthAdjust="spacing" textLength="61.4688" x="27" y="538.0332">cartId : int</text><rect fill="none" height="6" style="stroke:#C82930;stroke-width:1;" width="6" x="15" y="548.4141"/><text fill="#000000" font-family="sans-serif" font-size="14" lengthAdjust="spacing" textLength="65.3652" x="27" y="555.6426">userId : int</text><line style="stroke:#181818;stroke-width:1;" x1="8" x2="326.1641" y1="562.7188" y2="562.7188"/><ellipse cx="18" cy="577.0234" fill="#84BE84" rx="3" ry="3" style="stroke:#038048;stroke-width:1;"/><text fill="#000000" font-family="sans-serif" font-size="14" lengthAdjust="spacing" textLength="166.5234" x="27" y="581.252">addItem(product : Product)</text><ellipse cx="18" cy="594.6328" fill="#84BE84" rx="3" ry="3" style="stroke:#038048;stroke-width:1;"/><text fill="#000000" font-family="sans-serif" font-size="14" lengthAdjust="spacing" textLength="189.8477" x="27" y="598.8613">removeItem(product : Product)</text><ellipse cx="18" cy="612.2422" fill="#84BE84" rx="3" ry="3" style="stroke:#038048;stroke-width:1;"/><text fill="#000000" font-family="sans-serif" font-size="14" lengthAdjust="spacing" textLength="294.1641" x="27" y="616.4707">updateQuantity(product : Product, quantity : int)</text><ellipse cx="18" cy="629.8516" fill="#84BE84" rx="3" ry="3" style="stroke:#038048;stroke-width:1;"/><text fill="#000000" font-family="sans-serif" font-size="14" lengthAdjust="spacing" textLength="108.1582" x="27" y="634.0801">getTotalAmount()</text></g><!--class Payment--><g class="entity" data-entity="Payment" data-source-line="49" data-uid="ent0006" id="entity_Payment"><rect fill="#F1F1F1" height="171.2656" rx="2.5" ry="2.5" style="stroke:#181818;stroke-width:0.5;" width="174.6338" x="351.5" y="737"/><ellipse cx="406.9429" cy="753" fill="#ADD1B2" rx="11" ry="11" style="stroke:#181818;stroke-width:1;"/><path d="M409.7085,748.875 Q409.8647,748.6563 410.0522,748.5469 Q410.2397,748.4375 410.4585,748.4375 Q410.8335,748.4375 411.0679,748.7031 Q411.3022,748.9531 411.3022,749.5625 L411.3022,751.0156 Q411.3022,751.625 411.0679,751.8906 Q410.8335,752.1563 410.4585,752.1563 Q410.1147,752.1563 409.9116,751.9531 Q409.7085,751.7656 409.5991,751.25 Q409.5522,750.8906 409.3647,750.7031 Q409.0366,750.3281 408.4272,750.1094 Q407.8179,749.8906 407.1929,749.8906 Q406.4272,749.8906 405.7866,750.2188 Q405.1616,750.5469 404.6616,751.2969 Q404.1772,752.0469 404.1772,753.0781 L404.1772,754.1719 Q404.1772,755.4063 405.0679,756.2344 Q405.9585,757.0469 407.5522,757.0469 Q408.4897,757.0469 409.146,756.7969 Q409.5366,756.6406 409.9585,756.2031 Q410.2241,755.9375 410.3647,755.8594 Q410.521,755.7813 410.7241,755.7813 Q411.0522,755.7813 411.3022,756.0469 Q411.5679,756.2969 411.5679,756.6406 Q411.5679,756.9844 411.2241,757.3906 Q410.7241,757.9688 409.9272,758.2969 Q408.8491,758.75 407.5522,758.75 Q406.0366,758.75 404.8335,758.125 Q403.8491,757.625 403.1616,756.5625 Q402.4741,755.4844 402.4741,754.2031 L402.4741,753.0469 Q402.4741,751.7188 403.0835,750.5781 Q403.7085,749.4219 404.8022,748.8125 Q405.896,748.1875 407.1304,748.1875 Q407.8647,748.1875 408.5054,748.3594 Q409.1616,748.5156 409.7085,748.875 Z " fill="#000000"/><text fill="#000000" font-family="sans-serif" font-size="14" lengthAdjust="spacing" textLength="55.248" x="427.4429" y="758.7285">Payment</text><line style="stroke:#181818;stroke-width:0.5;" x1="352.5" x2="525.1338" y1="769" y2="769"/><rect fill="none" height="6" style="stroke:#C82930;stroke-width:1;" width="6" x="359.5" y="780.3047"/><text fill="#000000" font-family="sans-serif" font-size="14" lengthAdjust="spacing" textLength="91.8271" x="371.5" y="787.5332">paymentId : int</text><rect fill="none" height="6" style="stroke:#C82930;stroke-width:1;" width="6" x="359.5" y="797.9141"/><text fill="#000000" font-family="sans-serif" font-size="14" lengthAdjust="spacing" textLength="70.8135" x="371.5" y="805.1426">orderId : int</text><rect fill="none" height="6" style="stroke:#C82930;stroke-width:1;" width="6" x="359.5" y="815.5234"/><text fill="#000000" font-family="sans-serif" font-size="14" lengthAdjust="spacing" textLength="124.5098" x="371.5" y="822.752">paymentDate : Date</text><rect fill="none" height="6" style="stroke:#C82930;stroke-width:1;" width="6" x="359.5" y="833.1328"/><text fill="#000000" font-family="sans-serif" font-size="14" lengthAdjust="spacing" textLength="100.4063" x="371.5" y="840.3613">amount : double</text><rect fill="none" height="6" style="stroke:#C82930;stroke-width:1;" width="6" x="359.5" y="850.7422"/><text fill="#000000" font-family="sans-serif" font-size="14" lengthAdjust="spacing" textLength="148.6338" x="371.5" y="857.9707">paymentMethod : String</text><line style="stroke:#181818;stroke-width:1;" x1="352.5" x2="525.1338" y1="865.0469" y2="865.0469"/><ellipse cx="362.5" cy="879.3516" fill="#84BE84" rx="3" ry="3" style="stroke:#038048;stroke-width:1;"/><text fill="#000000" font-family="sans-serif" font-size="14" lengthAdjust="spacing" textLength="113.5928" x="371.5" y="883.5801">processPayment()</text><ellipse cx="362.5" cy="896.9609" fill="#84BE84" rx="3" ry="3" style="stroke:#038048;stroke-width:1;"/><text fill="#000000" font-family="sans-serif" font-size="14" lengthAdjust="spacing" textLength="104.2686" x="371.5" y="901.1895">refundPayment()</text></g><!--class Category--><g class="entity" data-entity="Category" data-source-line="60" data-uid="ent0007" id="entity_Category"><rect fill="#F1F1F1" height="100.8281" rx="2.5" ry="2.5" style="stroke:#181818;stroke-width:0.5;" width="117.8271" x="380" y="7"/><ellipse cx="408.0592" cy="23" fill="#ADD1B2" rx="11" ry="11" style="stroke:#181818;stroke-width:1;"/><path d="M410.8249,18.875 Q410.9811,18.6563 411.1686,18.5469 Q411.3561,18.4375 411.5749,18.4375 Q411.9499,18.4375 412.1842,18.7031 Q412.4186,18.9531 412.4186,19.5625 L412.4186,21.0156 Q412.4186,21.625 412.1842,21.8906 Q411.9499,22.1563 411.5749,22.1563 Q411.2311,22.1563 411.028,21.9531 Q410.8249,21.7656 410.7155,21.25 Q410.6686,20.8906 410.4811,20.7031 Q410.153,20.3281 409.5436,20.1094 Q408.9342,19.8906 408.3092,19.8906 Q407.5436,19.8906 406.903,20.2188 Q406.278,20.5469 405.778,21.2969 Q405.2936,22.0469 405.2936,23.0781 L405.2936,24.1719 Q405.2936,25.4063 406.1842,26.2344 Q407.0749,27.0469 408.6686,27.0469 Q409.6061,27.0469 410.2624,26.7969 Q410.653,26.6406 411.0749,26.2031 Q411.3405,25.9375 411.4811,25.8594 Q411.6374,25.7813 411.8405,25.7813 Q412.1686,25.7813 412.4186,26.0469 Q412.6842,26.2969 412.6842,26.6406 Q412.6842,26.9844 412.3405,27.3906 Q411.8405,27.9688 411.0436,28.2969 Q409.9655,28.75 408.6686,28.75 Q407.153,28.75 405.9499,28.125 Q404.9655,27.625 404.278,26.5625 Q403.5905,25.4844 403.5905,24.2031 L403.5905,23.0469 Q403.5905,21.7188 404.1999,20.5781 Q404.8249,19.4219 405.9186,18.8125 Q407.0124,18.1875 408.2467,18.1875 Q408.9811,18.1875 409.6217,18.3594 Q410.278,18.5156 410.8249,18.875 Z " fill="#000000"/><text fill="#000000" font-family="sans-serif" font-size="14" lengthAdjust="spacing" textLength="56.8066" x="424.9613" y="28.7285">Category</text><line style="stroke:#181818;stroke-width:0.5;" x1="381" x2="496.8271" y1="39" y2="39"/><rect fill="none" height="6" style="stroke:#C82930;stroke-width:1;" width="6" x="388" y="50.3047"/><text fill="#000000" font-family="sans-serif" font-size="14" lengthAdjust="spacing" textLength="91.8271" x="400" y="57.5332">categoryId : int</text><rect fill="none" height="6" style="stroke:#C82930;stroke-width:1;" width="6" x="388" y="67.9141"/><text fill="#000000" font-family="sans-serif" font-size="14" lengthAdjust="spacing" textLength="83.2617" x="400" y="75.1426">name : String</text><line style="stroke:#181818;stroke-width:1;" x1="381" x2="496.8271" y1="82.2188" y2="82.2188"/><ellipse cx="391" cy="96.5234" fill="#84BE84" rx="3" ry="3" style="stroke:#038048;stroke-width:1;"/><text fill="#000000" font-family="sans-serif" font-size="14" lengthAdjust="spacing" textLength="84.0342" x="400" y="100.752">getProducts()</text></g><!--link User to Order--><g class="link" data-entity-1="User" data-entity-2="Order" data-source-line="68" data-uid="lnk8" id="link_User_Order"><path codeLine="68" d="M290.74,387.2 C313.85,414.68 338.92,444.49 361.76,471.65" fill="none" id="User-Order" style="stroke:#181818;stroke-width:1;"/><text fill="#000000" font-family="sans-serif" font-size="13" lengthAdjust="spacing" textLength="37.5781" x="332" y="436.4951">places</text><text fill="#000000" font-family="sans-serif" font-size="13" lengthAdjust="spacing" textLength="7.23" x="298.3435" y="392.7226">1</text><text fill="#000000" font-family="sans-serif" font-size="13" lengthAdjust="spacing" textLength="5.0591" x="348.8928" y="459.2412">*</text></g><!--link User to ShoppingCart--><g class="link" data-entity-1="User" data-entity-2="ShoppingCart" data-source-line="69" data-uid="lnk9" id="link_User_ShoppingCart"><path codeLine="69" d="M193.3,392.23 C188.45,423.79 183.21,457.97 178.68,487.44" fill="none" id="User-ShoppingCart" style="stroke:#181818;stroke-width:1;"/><text fill="#000000" font-family="sans-serif" font-size="13" lengthAdjust="spacing" textLength="30.3481" x="189" y="436.4951">owns</text><text fill="#000000" font-family="sans-serif" font-size="13" lengthAdjust="spacing" textLength="7.23" x="184.8997" y="413.8887">1</text><text fill="#000000" font-family="sans-serif" font-size="13" lengthAdjust="spacing" textLength="5.0591" x="174.5785" y="476.5962">*</text></g><!--link Order to Payment--><g class="link" data-entity-1="Order" data-entity-2="Payment" data-source-line="70" data-uid="lnk10" id="link_Order_Payment"><path codeLine="70" d="M439,659.01 C439,684.43 439,711.82 439,736.73" fill="none" id="Order-Payment" style="stroke:#181818;stroke-width:1;"/><text fill="#000000" font-family="sans-serif" font-size="13" lengthAdjust="spacing" textLength="32.519" x="440" y="703.4951">made</text><text fill="#000000" font-family="sans-serif" font-size="13" lengthAdjust="spacing" textLength="7.23" x="431.7248" y="680.3718">1</text><text fill="#000000" font-family="sans-serif" font-size="13" lengthAdjust="spacing" textLength="7.23" x="431.7248" y="726.1705">1</text></g><!--link Product to Order--><g class="link" data-entity-1="Product" data-entity-2="Order" data-source-line="71" data-uid="lnk11" id="link_Product_Order"><path codeLine="71" d="M439,383.74 C439,411.57 439,442.06 439,469.88" fill="none" id="Product-Order" style="stroke:#181818;stroke-width:1;"/><text fill="#000000" font-family="sans-serif" font-size="13" lengthAdjust="spacing" textLength="10.1182" x="440" y="436.4951">in</text><text fill="#000000" font-family="sans-serif" font-size="13" lengthAdjust="spacing" textLength="7.23" x="431.7535" y="404.7976">1</text><text fill="#000000" font-family="sans-serif" font-size="13" lengthAdjust="spacing" textLength="5.0591" x="433.7864" y="459.2166">*</text></g><!--link Category to Product--><g class="link" data-entity-1="Category" data-entity-2="Product" data-source-line="72" data-uid="lnk12" id="link_Category_Product"><path codeLine="72" d="M439,108.02 C439,133.18 439,164.62 439,194.15" fill="none" id="Category-Product" style="stroke:#181818;stroke-width:1;"/><text fill="#000000" font-family="sans-serif" font-size="13" lengthAdjust="spacing" textLength="48.4199" x="440" y="152.4951">contains</text><text fill="#000000" font-family="sans-serif" font-size="13" lengthAdjust="spacing" textLength="7.23" x="431.5568" y="129.4139">1</text><text fill="#000000" font-family="sans-serif" font-size="13" lengthAdjust="spacing" textLength="5.0591" x="433.813" y="183.7889">*</text></g><!--SRC=[XLJBRi8m4BpdAonEq9P3hxbLSEcXBHNb0uoz14kndThh8eJwxrqIvnqA5sl76tjcPup8kVTivy6nIyBejsI1YbV9KgOCTY33DH2uHQTC5l62FZvP9uSuQAxo8SYbT42N3SyuMWFlGU-9GdzhMIwFp46cF8ARBoAGsqoPfWg5v0WRPmyg1q9_aqIKgWYIGM0ZhAZgWROfNHAySAf0PSs8hbFYsYzjsESGGQLv1ZitaYo8M6RT-OQm370DIAFo8p5qILVAXvCTX-orch1e09LjQpgEqEiIORJ8ynTjWy6X3eySWx_1jiYvW998mrPm8o3lOvM2RNbILyBsQ8k23brnrreYgBWhf2P00Nf5qFFe8xL4XnTDKBJzWVzxAdgVWHjKU1xtFR7lk5THMBHUVRM3wyMCdpMOJiogUigC0HOxnnRnINTY-nlWqSfR9Zahw955JlDsCeTWP8isv5TrGY-3oDv_9PqKnzb5lvFoxsJsFACUDdkOnVIcLOByQBkNZ9JPa_59zKdTH4izvPHfBY6ft_R4BSeaZQhEzgPnMbX3Zuuk-GC0]--></g></svg>