<svg xmlns="http://www.w3.org/2000/svg" xmlns:xlink="http://www.w3.org/1999/xlink" contentStyleType="text/css" data-diagram-type="SEQUENCE" height="284px" preserveAspectRatio="none" style="width:214px;height:284px;background:#FFFFFF;" version="1.1" viewBox="0 0 214 284" width="214px" zoomAndPan="magnify"><title>Publisher Subscriber Model</title><defs/><g><text fill="#000000" font-family="sans-serif" font-size="14" font-weight="bold" lengthAdjust="spacing" textLength="185.1514" x="11.3589" y="29.5332">Publisher Subscriber Model</text><g><title>Publisher</title><rect fill="#000000" fill-opacity="0.00000" height="80.7031" width="8" x="33.1826" y="121.2188"/><line style="stroke:#181818;stroke-width:0.5;stroke-dasharray:5.0,5.0;" x1="37" x2="37" y1="121.2188" y2="201.9219"/></g><g><title>Subscriber</title><rect fill="#000000" fill-opacity="0.00000" height="80.7031" width="8" x="163.4106" y="121.2188"/><line style="stroke:#181818;stroke-width:0.5;stroke-dasharray:5.0,5.0;" x1="166.9521" x2="166.9521" y1="121.2188" y2="201.9219"/></g><g class="participant participant-head" data-participant="Publisher"><text fill="#000000" font-family="sans-serif" font-size="14" lengthAdjust="spacing" textLength="58.3652" x="5" y="118.1426">Publisher</text><ellipse cx="37.1826" cy="52.1094" fill="#E2E2F0" rx="8" ry="8" style="stroke:#181818;stroke-width:0.5;"/><path d="M37.1826,60.1094 L37.1826,87.1094 M24.1826,68.1094 L50.1826,68.1094 M37.1826,87.1094 L24.1826,102.1094 M37.1826,87.1094 L50.1826,102.1094" fill="none" style="stroke:#181818;stroke-width:0.5;"/></g><g class="participant participant-tail" data-participant="Publisher"><text fill="#000000" font-family="sans-serif" font-size="14" lengthAdjust="spacing" textLength="58.3652" x="5" y="215.4551">Publisher</text><ellipse cx="37.1826" cy="227.0313" fill="#E2E2F0" rx="8" ry="8" style="stroke:#181818;stroke-width:0.5;"/><path d="M37.1826,235.0313 L37.1826,262.0313 M24.1826,243.0313 L50.1826,243.0313 M37.1826,262.0313 L24.1826,277.0313 M37.1826,262.0313 L50.1826,277.0313" fill="none" style="stroke:#181818;stroke-width:0.5;"/></g><g class="participant participant-head" data-participant="Subscriber"><text fill="#000000" font-family="sans-serif" font-size="14" lengthAdjust="spacing" textLength="66.917" x="130.9521" y="118.1426">Subscriber</text><ellipse cx="167.4106" cy="52.1094" fill="#E2E2F0" rx="8" ry="8" style="stroke:#181818;stroke-width:0.5;"/><path d="M167.4106,60.1094 L167.4106,87.1094 M154.4106,68.1094 L180.4106,68.1094 M167.4106,87.1094 L154.4106,102.1094 M167.4106,87.1094 L180.4106,102.1094" fill="none" style="stroke:#181818;stroke-width:0.5;"/></g><g class="participant participant-tail" data-participant="Subscriber"><text fill="#000000" font-family="sans-serif" font-size="14" lengthAdjust="spacing" textLength="66.917" x="130.9521" y="215.4551">Subscriber</text><ellipse cx="167.4106" cy="227.0313" fill="#E2E2F0" rx="8" ry="8" style="stroke:#181818;stroke-width:0.5;"/><path d="M167.4106,235.0313 L167.4106,262.0313 M154.4106,243.0313 L180.4106,243.0313 M167.4106,262.0313 L154.4106,277.0313 M167.4106,262.0313 L180.4106,277.0313" fill="none" style="stroke:#181818;stroke-width:0.5;"/></g><g class="message" data-participant-1="Publisher" data-participant-2="Subscriber"><polygon fill="#181818" points="155.4106,149.5703,165.4106,153.5703,155.4106,157.5703,159.4106,153.5703" style="stroke:#181818;stroke-width:1;"/><line style="stroke:#181818;stroke-width:1;" x1="37.1826" x2="161.4106" y1="153.5703" y2="153.5703"/><text fill="#000000" font-family="sans-serif" font-size="13" lengthAdjust="spacing" textLength="33.2427" x="44.1826" y="148.7139">Event</text></g><g class="message" data-participant-1="Subscriber" data-participant-2="Publisher"><polygon fill="#181818" points="48.1826,179.9219,38.1826,183.9219,48.1826,187.9219,44.1826,183.9219" style="stroke:#181818;stroke-width:1;"/><line style="stroke:#181818;stroke-width:1;stroke-dasharray:2.0,2.0;" x1="42.1826" x2="166.4106" y1="183.9219" y2="183.9219"/><text fill="#000000" font-family="sans-serif" font-size="13" lengthAdjust="spacing" textLength="106.228" x="54.1826" y="179.0654">Acknowledgement</text></g><!--SRC=[AyaioKbL22XDoiaipaWjKWWkJIfEBifC0Z9zyrDISxYu4fDByeiGAg1yX3ekBeHkNJia2Ii5rxBKl18k92DrWGhWggqK79Epy_BBSr9JqbDpWIe1]--></g></svg>