<svg xmlns="http://www.w3.org/2000/svg" xmlns:xlink="http://www.w3.org/1999/xlink" contentStyleType="text/css" data-diagram-type="SEQUENCE" height="951px" preserveAspectRatio="none" style="width:672px;height:951px;background:#FFFFFF;" version="1.1" viewBox="0 0 672 951" width="672px" zoomAndPan="magnify"><title>e-commerce system sequence diagram</title><defs/><g><text fill="#000000" font-family="sans-serif" font-size="14" font-weight="bold" lengthAdjust="spacing" textLength="261.4609" x="204.4409" y="29.5332">e-commerce system sequence diagram</text><g><title>Customer</title><rect fill="#FFFFFF" height="30.3516" style="stroke:#181818;stroke-width:1;" width="10" x="33.3413" y="578.4922"/></g><g><title>Customer</title><rect fill="#FFFFFF" height="30.3516" style="stroke:#181818;stroke-width:1;" width="10" x="33.3413" y="639.1953"/></g><g><title>Web Server</title><rect fill="#FFFFFF" height="151.7578" style="stroke:#181818;stroke-width:1;" width="10" x="178.7466" y="153.5703"/></g><g><title>Web Server</title><rect fill="#FFFFFF" height="151.7578" style="stroke:#181818;stroke-width:1;" width="10" x="178.7466" y="335.6797"/></g><g><title>Web Server</title><rect fill="#FFFFFF" height="333.8672" style="stroke:#181818;stroke-width:1;" width="10" x="178.7466" y="517.7891"/></g><g><title>Application Server</title><rect fill="#FFFFFF" height="91.0547" style="stroke:#181818;stroke-width:1;" width="10" x="325.5337" y="183.9219"/></g><g><title>Application Server</title><rect fill="#FFFFFF" height="91.0547" style="stroke:#181818;stroke-width:1;" width="10" x="325.5337" y="366.0313"/></g><g><title>Application Server</title><rect fill="#FFFFFF" height="273.1641" style="stroke:#181818;stroke-width:1;" width="10" x="325.5337" y="548.1406"/></g><g><title>Database</title><rect fill="#FFFFFF" height="30.3516" style="stroke:#181818;stroke-width:1;" width="10" x="485.9917" y="214.2734"/></g><g><title>Database</title><rect fill="#FFFFFF" height="30.3516" style="stroke:#181818;stroke-width:1;" width="10" x="485.9917" y="396.3828"/></g><g><title>Database</title><rect fill="#FFFFFF" height="30.3516" style="stroke:#181818;stroke-width:1;" width="10" x="485.9917" y="760.6016"/></g><g><title>Payment Gateway</title><rect fill="#FFFFFF" height="30.3516" style="stroke:#181818;stroke-width:1;" width="10" x="597.1499" y="699.8984"/></g><g><title>Customer</title><rect fill="#000000" fill-opacity="0.00000" height="748.4375" width="8" x="34.3413" y="121.2188"/><line style="stroke:#181818;stroke-width:0.5;stroke-dasharray:5.0,5.0;" x1="38" x2="38" y1="121.2188" y2="869.6563"/></g><g><title>Web Server</title><rect fill="#000000" fill-opacity="0.00000" height="748.4375" width="8" x="179.7466" y="121.2188"/><line style="stroke:#181818;stroke-width:0.5;stroke-dasharray:5.0,5.0;" x1="182.7915" x2="182.7915" y1="121.2188" y2="869.6563"/></g><g><title>Application Server</title><rect fill="#000000" fill-opacity="0.00000" height="748.4375" width="8" x="326.5337" y="121.2188"/><line style="stroke:#181818;stroke-width:0.5;stroke-dasharray:5.0,5.0;" x1="329.7271" x2="329.7271" y1="121.2188" y2="869.6563"/></g><g><title>Database</title><rect fill="#000000" fill-opacity="0.00000" height="748.4375" width="8" x="486.9917" y="121.2188"/><line style="stroke:#181818;stroke-width:0.5;stroke-dasharray:5.0,5.0;" x1="490.0264" x2="490.0264" y1="121.2188" y2="869.6563"/></g><g><title>Payment Gateway</title><rect fill="#000000" fill-opacity="0.00000" height="748.4375" width="8" x="598.1499" y="121.2188"/><line style="stroke:#181818;stroke-width:0.5;stroke-dasharray:5.0,5.0;" x1="601.957" x2="601.957" y1="121.2188" y2="869.6563"/></g><g class="participant participant-head" data-participant="Customer"><text fill="#000000" font-family="sans-serif" font-size="14" lengthAdjust="spacing" textLength="60.6826" x="5" y="118.1426">Customer</text><ellipse cx="38.3413" cy="52.1094" fill="#E2E2F0" rx="8" ry="8" style="stroke:#181818;stroke-width:0.5;"/><path d="M38.3413,60.1094 L38.3413,87.1094 M25.3413,68.1094 L51.3413,68.1094 M38.3413,87.1094 L25.3413,102.1094 M38.3413,87.1094 L51.3413,102.1094" fill="none" style="stroke:#181818;stroke-width:0.5;"/></g><g class="participant participant-tail" data-participant="Customer"><text fill="#000000" font-family="sans-serif" font-size="14" lengthAdjust="spacing" textLength="60.6826" x="5" y="883.1895">Customer</text><ellipse cx="38.3413" cy="894.7656" fill="#E2E2F0" rx="8" ry="8" style="stroke:#181818;stroke-width:0.5;"/><path d="M38.3413,902.7656 L38.3413,929.7656 M25.3413,910.7656 L51.3413,910.7656 M38.3413,929.7656 L25.3413,944.7656 M38.3413,929.7656 L51.3413,944.7656" fill="none" style="stroke:#181818;stroke-width:0.5;"/></g><g class="participant participant-head" data-participant="WebServer"><rect fill="#E2E2F0" height="31.6094" rx="2.5" ry="2.5" style="stroke:#181818;stroke-width:0.5;" width="87.9102" x="139.7915" y="88.6094"/><text fill="#000000" font-family="sans-serif" font-size="14" lengthAdjust="spacing" textLength="73.9102" x="146.7915" y="110.1426">Web Server</text></g><g class="participant participant-tail" data-participant="WebServer"><rect fill="#E2E2F0" height="31.6094" rx="2.5" ry="2.5" style="stroke:#181818;stroke-width:0.5;" width="87.9102" x="139.7915" y="868.6563"/><text fill="#000000" font-family="sans-serif" font-size="14" lengthAdjust="spacing" textLength="73.9102" x="146.7915" y="890.1895">Web Server</text></g><g class="participant participant-head" data-participant="AppServer"><rect fill="#E2E2F0" height="31.6094" rx="2.5" ry="2.5" style="stroke:#181818;stroke-width:0.5;" width="127.6133" x="266.7271" y="88.6094"/><text fill="#000000" font-family="sans-serif" font-size="14" lengthAdjust="spacing" textLength="113.6133" x="273.7271" y="110.1426">Application Server</text></g><g class="participant participant-tail" data-participant="AppServer"><rect fill="#E2E2F0" height="31.6094" rx="2.5" ry="2.5" style="stroke:#181818;stroke-width:0.5;" width="127.6133" x="266.7271" y="868.6563"/><text fill="#000000" font-family="sans-serif" font-size="14" lengthAdjust="spacing" textLength="113.6133" x="273.7271" y="890.1895">Application Server</text></g><g class="participant participant-head" data-participant="DB"><rect fill="#E2E2F0" height="31.6094" rx="2.5" ry="2.5" style="stroke:#181818;stroke-width:0.5;" width="73.9307" x="454.0264" y="88.6094"/><text fill="#000000" font-family="sans-serif" font-size="14" lengthAdjust="spacing" textLength="59.9307" x="461.0264" y="110.1426">Database</text></g><g class="participant participant-tail" data-participant="DB"><rect fill="#E2E2F0" height="31.6094" rx="2.5" ry="2.5" style="stroke:#181818;stroke-width:0.5;" width="73.9307" x="454.0264" y="868.6563"/><text fill="#000000" font-family="sans-serif" font-size="14" lengthAdjust="spacing" textLength="59.9307" x="461.0264" y="890.1895">Database</text></g><g class="participant participant-head" data-participant="PaymentGateway"><rect fill="#E2E2F0" height="31.6094" rx="2.5" ry="2.5" style="stroke:#181818;stroke-width:0.5;" width="128.3857" x="537.957" y="88.6094"/><text fill="#000000" font-family="sans-serif" font-size="14" lengthAdjust="spacing" textLength="114.3857" x="544.957" y="110.1426">Payment Gateway</text></g><g class="participant participant-tail" data-participant="PaymentGateway"><rect fill="#E2E2F0" height="31.6094" rx="2.5" ry="2.5" style="stroke:#181818;stroke-width:0.5;" width="128.3857" x="537.957" y="868.6563"/><text fill="#000000" font-family="sans-serif" font-size="14" lengthAdjust="spacing" textLength="114.3857" x="544.957" y="890.1895">Payment Gateway</text></g><g><title>Customer</title><rect fill="#FFFFFF" height="30.3516" style="stroke:#181818;stroke-width:1;" width="10" x="33.3413" y="578.4922"/></g><g><title>Customer</title><rect fill="#FFFFFF" height="30.3516" style="stroke:#181818;stroke-width:1;" width="10" x="33.3413" y="639.1953"/></g><g><title>Web Server</title><rect fill="#FFFFFF" height="151.7578" style="stroke:#181818;stroke-width:1;" width="10" x="178.7466" y="153.5703"/></g><g><title>Web Server</title><rect fill="#FFFFFF" height="151.7578" style="stroke:#181818;stroke-width:1;" width="10" x="178.7466" y="335.6797"/></g><g><title>Web Server</title><rect fill="#FFFFFF" height="333.8672" style="stroke:#181818;stroke-width:1;" width="10" x="178.7466" y="517.7891"/></g><g><title>Application Server</title><rect fill="#FFFFFF" height="91.0547" style="stroke:#181818;stroke-width:1;" width="10" x="325.5337" y="183.9219"/></g><g><title>Application Server</title><rect fill="#FFFFFF" height="91.0547" style="stroke:#181818;stroke-width:1;" width="10" x="325.5337" y="366.0313"/></g><g><title>Application Server</title><rect fill="#FFFFFF" height="273.1641" style="stroke:#181818;stroke-width:1;" width="10" x="325.5337" y="548.1406"/></g><g><title>Database</title><rect fill="#FFFFFF" height="30.3516" style="stroke:#181818;stroke-width:1;" width="10" x="485.9917" y="214.2734"/></g><g><title>Database</title><rect fill="#FFFFFF" height="30.3516" style="stroke:#181818;stroke-width:1;" width="10" x="485.9917" y="396.3828"/></g><g><title>Database</title><rect fill="#FFFFFF" height="30.3516" style="stroke:#181818;stroke-width:1;" width="10" x="485.9917" y="760.6016"/></g><g><title>Payment Gateway</title><rect fill="#FFFFFF" height="30.3516" style="stroke:#181818;stroke-width:1;" width="10" x="597.1499" y="699.8984"/></g><g class="message" data-participant-1="Customer" data-participant-2="WebServer"><polygon fill="#181818" points="166.7466,149.5703,176.7466,153.5703,166.7466,157.5703,170.7466,153.5703" style="stroke:#181818;stroke-width:1;"/><line style="stroke:#181818;stroke-width:1;" x1="38.3413" x2="172.7466" y1="153.5703" y2="153.5703"/><text fill="#000000" font-family="sans-serif" font-size="13" lengthAdjust="spacing" textLength="98.2617" x="45.3413" y="148.7139">Browse Products</text></g><g class="message" data-participant-1="WebServer" data-participant-2="AppServer"><polygon fill="#181818" points="313.5337,179.9219,323.5337,183.9219,313.5337,187.9219,317.5337,183.9219" style="stroke:#181818;stroke-width:1;"/><line style="stroke:#181818;stroke-width:1;" x1="188.7466" x2="319.5337" y1="183.9219" y2="183.9219"/><text fill="#000000" font-family="sans-serif" font-size="13" lengthAdjust="spacing" textLength="117.7871" x="195.7466" y="179.0654">Get Product Catalog</text></g><g class="message" data-participant-1="AppServer" data-participant-2="DB"><polygon fill="#181818" points="473.9917,210.2734,483.9917,214.2734,473.9917,218.2734,477.9917,214.2734" style="stroke:#181818;stroke-width:1;"/><line style="stroke:#181818;stroke-width:1;" x1="335.5337" x2="479.9917" y1="214.2734" y2="214.2734"/><text fill="#000000" font-family="sans-serif" font-size="13" lengthAdjust="spacing" textLength="127.8926" x="342.5337" y="209.417">Retrieve Product Data</text></g><g class="message" data-participant-1="DB" data-participant-2="AppServer"><polygon fill="#181818" points="346.5337,240.625,336.5337,244.625,346.5337,248.625,342.5337,244.625" style="stroke:#181818;stroke-width:1;"/><line style="stroke:#181818;stroke-width:1;stroke-dasharray:2.0,2.0;" x1="340.5337" x2="489.9917" y1="244.625" y2="244.625"/><text fill="#000000" font-family="sans-serif" font-size="13" lengthAdjust="spacing" textLength="75.8735" x="352.5337" y="239.7686">Product Data</text></g><g class="message" data-participant-1="AppServer" data-participant-2="WebServer"><polygon fill="#181818" points="199.7466,270.9766,189.7466,274.9766,199.7466,278.9766,195.7466,274.9766" style="stroke:#181818;stroke-width:1;"/><line style="stroke:#181818;stroke-width:1;stroke-dasharray:2.0,2.0;" x1="193.7466" x2="329.5337" y1="274.9766" y2="274.9766"/><text fill="#000000" font-family="sans-serif" font-size="13" lengthAdjust="spacing" textLength="93.2217" x="205.7466" y="270.1201">Product Catalog</text></g><g class="message" data-participant-1="WebServer" data-participant-2="Customer"><polygon fill="#181818" points="49.3413,301.3281,39.3413,305.3281,49.3413,309.3281,45.3413,305.3281" style="stroke:#181818;stroke-width:1;"/><line style="stroke:#181818;stroke-width:1;stroke-dasharray:2.0,2.0;" x1="43.3413" x2="182.7466" y1="305.3281" y2="305.3281"/><text fill="#000000" font-family="sans-serif" font-size="13" lengthAdjust="spacing" textLength="97.5381" x="55.3413" y="300.4717">Display Products</text></g><g class="message" data-participant-1="Customer" data-participant-2="WebServer"><polygon fill="#181818" points="166.7466,331.6797,176.7466,335.6797,166.7466,339.6797,170.7466,335.6797" style="stroke:#181818;stroke-width:1;"/><line style="stroke:#181818;stroke-width:1;" x1="38.3413" x2="172.7466" y1="335.6797" y2="335.6797"/><text fill="#000000" font-family="sans-serif" font-size="13" lengthAdjust="spacing" textLength="114.1689" x="45.3413" y="330.8232">Add Product to Cart</text></g><g class="message" data-participant-1="WebServer" data-participant-2="AppServer"><polygon fill="#181818" points="313.5337,362.0313,323.5337,366.0313,313.5337,370.0313,317.5337,366.0313" style="stroke:#181818;stroke-width:1;"/><line style="stroke:#181818;stroke-width:1;" x1="188.7466" x2="319.5337" y1="366.0313" y2="366.0313"/><text fill="#000000" font-family="sans-serif" font-size="13" lengthAdjust="spacing" textLength="65.7554" x="195.7466" y="361.1748">Add to Cart</text></g><g class="message" data-participant-1="AppServer" data-participant-2="DB"><polygon fill="#181818" points="473.9917,392.3828,483.9917,396.3828,473.9917,400.3828,477.9917,396.3828" style="stroke:#181818;stroke-width:1;"/><line style="stroke:#181818;stroke-width:1;" x1="335.5337" x2="479.9917" y1="396.3828" y2="396.3828"/><text fill="#000000" font-family="sans-serif" font-size="13" lengthAdjust="spacing" textLength="70.0908" x="342.5337" y="391.5264">Update Cart</text></g><g class="message" data-participant-1="DB" data-participant-2="AppServer"><polygon fill="#181818" points="346.5337,422.7344,336.5337,426.7344,346.5337,430.7344,342.5337,426.7344" style="stroke:#181818;stroke-width:1;"/><line style="stroke:#181818;stroke-width:1;stroke-dasharray:2.0,2.0;" x1="340.5337" x2="489.9917" y1="426.7344" y2="426.7344"/><text fill="#000000" font-family="sans-serif" font-size="13" lengthAdjust="spacing" textLength="77.3208" x="352.5337" y="421.8779">Cart Updated</text></g><g class="message" data-participant-1="AppServer" data-participant-2="WebServer"><polygon fill="#181818" points="199.7466,453.0859,189.7466,457.0859,199.7466,461.0859,195.7466,457.0859" style="stroke:#181818;stroke-width:1;"/><line style="stroke:#181818;stroke-width:1;stroke-dasharray:2.0,2.0;" x1="193.7466" x2="329.5337" y1="457.0859" y2="457.0859"/><text fill="#000000" font-family="sans-serif" font-size="13" lengthAdjust="spacing" textLength="77.3208" x="205.7466" y="452.2295">Cart Updated</text></g><g class="message" data-participant-1="WebServer" data-participant-2="Customer"><polygon fill="#181818" points="49.3413,483.4375,39.3413,487.4375,49.3413,491.4375,45.3413,487.4375" style="stroke:#181818;stroke-width:1;"/><line style="stroke:#181818;stroke-width:1;stroke-dasharray:2.0,2.0;" x1="43.3413" x2="182.7466" y1="487.4375" y2="487.4375"/><text fill="#000000" font-family="sans-serif" font-size="13" lengthAdjust="spacing" textLength="77.3208" x="55.3413" y="482.5811">Cart Updated</text></g><g class="message" data-participant-1="Customer" data-participant-2="WebServer"><polygon fill="#181818" points="166.7466,513.7891,176.7466,517.7891,166.7466,521.7891,170.7466,517.7891" style="stroke:#181818;stroke-width:1;"/><line style="stroke:#181818;stroke-width:1;" x1="38.3413" x2="172.7466" y1="517.7891" y2="517.7891"/><text fill="#000000" font-family="sans-serif" font-size="13" lengthAdjust="spacing" textLength="121.4053" x="45.3413" y="512.9326">Proceed to Checkout</text></g><g class="message" data-participant-1="WebServer" data-participant-2="AppServer"><polygon fill="#181818" points="313.5337,544.1406,323.5337,548.1406,313.5337,552.1406,317.5337,548.1406" style="stroke:#181818;stroke-width:1;"/><line style="stroke:#181818;stroke-width:1;" x1="188.7466" x2="319.5337" y1="548.1406" y2="548.1406"/><text fill="#000000" font-family="sans-serif" font-size="13" lengthAdjust="spacing" textLength="96.8335" x="195.7466" y="543.2842">Initiate Checkout</text></g><g class="message" data-participant-1="AppServer" data-participant-2="Customer"><polygon fill="#181818" points="54.3413,574.4922,44.3413,578.4922,54.3413,582.4922,50.3413,578.4922" style="stroke:#181818;stroke-width:1;"/><line style="stroke:#181818;stroke-width:1;" x1="48.3413" x2="324.5337" y1="578.4922" y2="578.4922"/><text fill="#000000" font-family="sans-serif" font-size="13" lengthAdjust="spacing" textLength="101.8989" x="60.3413" y="573.6357">Shipping Address</text></g><g class="message" data-participant-1="Customer" data-participant-2="AppServer"><polygon fill="#181818" points="313.5337,604.8438,323.5337,608.8438,313.5337,612.8438,317.5337,608.8438" style="stroke:#181818;stroke-width:1;"/><line style="stroke:#181818;stroke-width:1;stroke-dasharray:2.0,2.0;" x1="38.3413" x2="319.5337" y1="608.8438" y2="608.8438"/><text fill="#000000" font-family="sans-serif" font-size="13" lengthAdjust="spacing" textLength="101.8989" x="45.3413" y="603.9873">Shipping Address</text></g><g class="message" data-participant-1="AppServer" data-participant-2="Customer"><polygon fill="#181818" points="54.3413,635.1953,44.3413,639.1953,54.3413,643.1953,50.3413,639.1953" style="stroke:#181818;stroke-width:1;"/><line style="stroke:#181818;stroke-width:1;" x1="48.3413" x2="324.5337" y1="639.1953" y2="639.1953"/><text fill="#000000" font-family="sans-serif" font-size="13" lengthAdjust="spacing" textLength="119.9453" x="60.3413" y="634.3389">Payment Information</text></g><g class="message" data-participant-1="Customer" data-participant-2="AppServer"><polygon fill="#181818" points="313.5337,665.5469,323.5337,669.5469,313.5337,673.5469,317.5337,669.5469" style="stroke:#181818;stroke-width:1;"/><line style="stroke:#181818;stroke-width:1;stroke-dasharray:2.0,2.0;" x1="38.3413" x2="319.5337" y1="669.5469" y2="669.5469"/><text fill="#000000" font-family="sans-serif" font-size="13" lengthAdjust="spacing" textLength="119.9453" x="45.3413" y="664.6904">Payment Information</text></g><g class="message" data-participant-1="AppServer" data-participant-2="PaymentGateway"><polygon fill="#181818" points="585.1499,695.8984,595.1499,699.8984,585.1499,703.8984,589.1499,699.8984" style="stroke:#181818;stroke-width:1;"/><line style="stroke:#181818;stroke-width:1;" x1="335.5337" x2="591.1499" y1="699.8984" y2="699.8984"/><text fill="#000000" font-family="sans-serif" font-size="13" lengthAdjust="spacing" textLength="101.8735" x="342.5337" y="695.042">Process Payment</text></g><g class="message" data-participant-1="PaymentGateway" data-participant-2="AppServer"><polygon fill="#181818" points="346.5337,726.25,336.5337,730.25,346.5337,734.25,342.5337,730.25" style="stroke:#181818;stroke-width:1;"/><line style="stroke:#181818;stroke-width:1;stroke-dasharray:2.0,2.0;" x1="340.5337" x2="601.1499" y1="730.25" y2="730.25"/><text fill="#000000" font-family="sans-serif" font-size="13" lengthAdjust="spacing" textLength="117.7744" x="352.5337" y="725.3936">Payment Successful</text></g><g class="message" data-participant-1="AppServer" data-participant-2="DB"><polygon fill="#181818" points="473.9917,756.6016,483.9917,760.6016,473.9917,764.6016,477.9917,760.6016" style="stroke:#181818;stroke-width:1;"/><line style="stroke:#181818;stroke-width:1;" x1="335.5337" x2="479.9917" y1="760.6016" y2="760.6016"/><text fill="#000000" font-family="sans-serif" font-size="13" lengthAdjust="spacing" textLength="119.228" x="342.5337" y="755.7451">Update Order Status</text></g><g class="message" data-participant-1="DB" data-participant-2="AppServer"><polygon fill="#181818" points="346.5337,786.9531,336.5337,790.9531,346.5337,794.9531,342.5337,790.9531" style="stroke:#181818;stroke-width:1;"/><line style="stroke:#181818;stroke-width:1;stroke-dasharray:2.0,2.0;" x1="340.5337" x2="489.9917" y1="790.9531" y2="790.9531"/><text fill="#000000" font-family="sans-serif" font-size="13" lengthAdjust="spacing" textLength="126.458" x="352.5337" y="786.0967">Order Status Updated</text></g><g class="message" data-participant-1="AppServer" data-participant-2="WebServer"><polygon fill="#181818" points="199.7466,817.3047,189.7466,821.3047,199.7466,825.3047,195.7466,821.3047" style="stroke:#181818;stroke-width:1;"/><line style="stroke:#181818;stroke-width:1;stroke-dasharray:2.0,2.0;" x1="193.7466" x2="329.5337" y1="821.3047" y2="821.3047"/><text fill="#000000" font-family="sans-serif" font-size="13" lengthAdjust="spacing" textLength="110.5381" x="205.7466" y="816.4482">Order Confirmation</text></g><g class="message" data-participant-1="WebServer" data-participant-2="Customer"><polygon fill="#181818" points="49.3413,847.6563,39.3413,851.6563,49.3413,855.6563,45.3413,851.6563" style="stroke:#181818;stroke-width:1;"/><line style="stroke:#181818;stroke-width:1;stroke-dasharray:2.0,2.0;" x1="43.3413" x2="182.7466" y1="851.6563" y2="851.6563"/><text fill="#000000" font-family="sans-serif" font-size="13" lengthAdjust="spacing" textLength="110.5381" x="55.3413" y="846.7998">Order Confirmation</text></g><!--SRC=[bPJ1ZeCW48RlFiMazxw0XqtMcZGzRRDcisUAqvQiYWjZ6zz-mQf0gtLx0_m_vfzVW0GL2BZciYnHSGJTQi8IDFusM9bvBjX9iJAA62UfODDeaaOPrKoHuA9c5S7g6m-GeRgWMW7JOAQtMQXwh-j2S4P2LhxQB4-fKqRim3HscZG9F-vPMw8PR1dXbRMTfb_hbw9ei0hhD-SeXaJ9gqROAvatdBJjIrmCuxaUHnOTxSMmHHeus1XxXJmvtBKnZYoU9Z5y8Yc1bx4esDuSQPfB4rY7jG9fZhxOspzixTwRXpbtNdE67aAA8HMwBbZhWl5e5yrSgkzvFfOdQHmeUYLPYpzWJnBzgdEh2FMJELf9By__c-CSinpY7BaSe0cF8zvIE2F_aSrB0UugGQABv06UYT6PpiwYhaLridz1eVQkn7ZRdUcmx0FgzJp2CsM7ExohZbALtRFmGkKfUh5u-4JqeUlnwN3bxzwIS3fd9MkutUtO5BwJkwtcZlA7oirQHemQlN2aVUchH_l6RcHr51EfBH_mvxmxfty0]--></g></svg>